<?xml version="1.0" ?><!DOCTYPE svg  PUBLIC '-//W3C//DTD SVG 1.1//EN'  'http://www.w3.org/Graphics/SVG/1.1/DTD/svg11.dtd'><svg enable-background="new 0 0 130 130" height="130px" id="icon" version="1.1" viewBox="0 0 130 130" width="130px" xml:space="preserve" xmlns="http://www.w3.org/2000/svg" xmlns:xlink="http://www.w3.org/1999/xlink"><g><polygon fill="none" points="65.251,50.894 65.746,49.015    66.301,47.979 67.701,46.693 69.248,45.416 70.348,44.32 71.436,42.844 71.873,41.324 72.251,39.811 71.671,37.75 70.784,36.313    69.318,35.363 67.118,34.679 65.251,34.679 63.618,35.144 62.239,36.329 61.519,37.711 61.216,38.992 59.206,39.242 57.361,38.884    56.933,37.457 57.201,35.611 58.251,33.511 60.075,31.888 62.216,30.744 64.502,30.174 66.238,30.039 67.785,30.033 69.801,30.361    71.9,31.179 73.534,32.344 74.818,33.511 75.984,35.729 76.451,38.179 76.335,40.629 75.52,43.193 74.234,45.761 72.406,47.801    70.736,49.263 69.801,50.661 69.451,52.528 69.451,54.043 65.216,54.021  " stroke="#3262F9" stroke-miterlimit="10" stroke-width="2"/><path d="M121.743,83.29l-2.101-3.675l-3.149-2.625   l-4.903-2.521l-4.339-1.681l-3.883-1.575l-3.675-1.573l-3.504-1.189l-3.848-1.436l-3.148-1.575l-2.102-1.051l-2.097-1.05   l-2.235-1.89l-1.953-2.311l-1.557-2.625l-1.54-2.1l-10.644-0.307l-10.709,0.307l-1.575,2.1l-1.575,2.625l-1.959,2.311l-2.241,1.89   l-2.1,1.05l-2.101,1.051l-3.149,1.575l-3.849,1.436l-3.502,1.189l-3.675,1.573l-3.884,1.575l-4.34,1.681l-4.901,2.521l-3.149,2.625   l-2.101,3.675l-0.769,3.5l0.244,2.274l1.574,2.101l2.686-0.265l2.495-0.748l2.64-1.508l2.155-1.675l3.605-2.696l4.06-2.379   l3.779-1.821l4.345-1.705l3.775-1.095l3.641-1.679l3.921-2.241l3.779-2.521c0,0,3.604-3.08,5.18-3.08   c1.362,0,5.566-0.155,7.698-0.203c1.682,0.043,6.271,0.203,7.631,0.203c1.576,0,5.107,3.08,5.107,3.08l3.779,2.521l3.921,2.241   l3.644,1.679l3.772,1.095l4.347,1.705l3.779,1.821l4.059,2.379l3.606,2.696l2.153,1.675l2.64,1.508l2.496,0.748l2.687,0.265   l1.574-2.101l0.243-2.274L121.743,83.29z" fill="none" stroke="#3262F9" stroke-miterlimit="10" stroke-width="2"/></g></svg>